<?xml version="1.0" encoding="UTF-8" standalone="no"?>
<!DOCTYPE svg PUBLIC "-//W3C//DTD SVG 1.1//EN"
 "http://www.w3.org/Graphics/SVG/1.1/DTD/svg11.dtd">
<!-- Generated by graphviz version 2.42.4 (0)
 -->
<!-- Title: G Pages: 1 -->
<svg width="569pt" height="479pt"
 viewBox="0.00 0.00 569.00 479.00" xmlns="http://www.w3.org/2000/svg" xmlns:xlink="http://www.w3.org/1999/xlink">
<g id="graph0" class="graph" transform="scale(1 1) rotate(0) translate(4 475)">
<title>G</title>
<polygon fill="white" stroke="transparent" points="-4,4 -4,-475 565,-475 565,4 -4,4"/>
<!-- 5 -->
<g id="node1" class="node">
<title>5</title>
<ellipse fill="none" stroke="black" cx="331" cy="-453" rx="27" ry="18"/>
<text text-anchor="middle" x="331" y="-449.3" font-family="Times,serif" font-size="14.00">5</text>
</g>
<!-- 4 -->
<g id="node2" class="node">
<title>4</title>
<ellipse fill="none" stroke="black" cx="262" cy="-366" rx="27" ry="18"/>
<text text-anchor="middle" x="262" y="-362.3" font-family="Times,serif" font-size="14.00">4</text>
</g>
<!-- 5&#45;&gt;4 -->
<g id="edge2" class="edge">
<title>5&#45;&gt;4</title>
<path fill="none" stroke="black" d="M304.27,-450.21C281.91,-447.14 251.28,-438.92 236,-417 229.92,-408.27 233.69,-397.94 240.04,-388.94"/>
<polygon fill="black" stroke="black" points="242.8,-391.1 246.4,-381.13 237.37,-386.68 242.8,-391.1"/>
<text text-anchor="middle" x="256.5" y="-405.8" font-family="Times,serif" font-size="14.00">0/110</text>
</g>
<!-- 6 -->
<g id="node4" class="node">
<title>6</title>
<ellipse fill="none" stroke="black" cx="262" cy="-18" rx="27" ry="18"/>
<text text-anchor="middle" x="262" y="-14.3" font-family="Times,serif" font-size="14.00">6</text>
</g>
<!-- 5&#45;&gt;6 -->
<g id="edge1" class="edge">
<title>5&#45;&gt;6</title>
<path fill="none" stroke="black" d="M303.91,-450.85C224.86,-446.75 0,-429.59 0,-367 0,-367 0,-367 0,-104 0,-57.17 153.37,-32.24 225.42,-23.11"/>
<polygon fill="black" stroke="black" points="225.94,-26.58 235.44,-21.88 225.08,-19.63 225.94,-26.58"/>
<text text-anchor="middle" x="25" y="-231.8" font-family="Times,serif" font-size="14.00">60/140</text>
</g>
<!-- 2 -->
<g id="node5" class="node">
<title>2</title>
<ellipse fill="none" stroke="black" cx="345" cy="-192" rx="27" ry="18"/>
<text text-anchor="middle" x="345" y="-188.3" font-family="Times,serif" font-size="14.00">2</text>
</g>
<!-- 5&#45;&gt;2 -->
<g id="edge3" class="edge">
<title>5&#45;&gt;2</title>
<path fill="none" stroke="black" d="M341.31,-436.21C344.63,-430.4 347.97,-423.61 350,-417 372.77,-342.71 363.22,-320.61 367,-243 367.32,-236.34 368.85,-234.41 367,-228 365.89,-224.15 364.22,-220.32 362.29,-216.68"/>
<polygon fill="black" stroke="black" points="365.28,-214.86 357.1,-208.12 359.29,-218.49 365.28,-214.86"/>
<text text-anchor="middle" x="385.5" y="-318.8" font-family="Times,serif" font-size="14.00">0/180</text>
</g>
<!-- 4&#45;&gt;5 -->
<g id="edge5" class="edge">
<title>4&#45;&gt;5</title>
<path fill="none" stroke="black" d="M273.35,-382.55C280.75,-392.54 290.73,-405.71 300,-417 303.39,-421.13 307.09,-425.45 310.71,-429.59"/>
<polygon fill="black" stroke="black" points="308.22,-432.06 317.47,-437.23 313.46,-427.42 308.22,-432.06"/>
<text text-anchor="middle" x="325" y="-405.8" font-family="Times,serif" font-size="14.00">30/110</text>
</g>
<!-- 4&#45;&gt;6 -->
<g id="edge4" class="edge">
<title>4&#45;&gt;6</title>
<path fill="none" stroke="black" d="M235.02,-365.22C181.07,-364.1 65,-353.19 65,-280 65,-280 65,-280 65,-104 65,-35.09 167.86,-21.39 224.93,-19.09"/>
<polygon fill="black" stroke="black" points="225.13,-22.58 235.02,-18.78 224.92,-15.59 225.13,-22.58"/>
<text text-anchor="middle" x="90" y="-188.3" font-family="Times,serif" font-size="14.00">30/130</text>
</g>
<!-- 1 -->
<g id="node6" class="node">
<title>1</title>
<ellipse fill="none" stroke="black" cx="225" cy="-279" rx="27" ry="18"/>
<text text-anchor="middle" x="225" y="-275.3" font-family="Times,serif" font-size="14.00">1</text>
</g>
<!-- 4&#45;&gt;1 -->
<g id="edge6" class="edge">
<title>4&#45;&gt;1</title>
<path fill="none" stroke="black" d="M267.94,-348.05C270.45,-338 271.81,-325.27 267,-315 263.92,-308.42 258.92,-302.64 253.43,-297.78"/>
<polygon fill="black" stroke="black" points="255.22,-294.74 245.2,-291.31 250.9,-300.24 255.22,-294.74"/>
<text text-anchor="middle" x="290.5" y="-318.8" font-family="Times,serif" font-size="14.00">0/200</text>
</g>
<!-- 3 -->
<g id="node3" class="node">
<title>3</title>
<ellipse fill="none" stroke="black" cx="263" cy="-105" rx="27" ry="18"/>
<text text-anchor="middle" x="263" y="-101.3" font-family="Times,serif" font-size="14.00">3</text>
</g>
<!-- 3&#45;&gt;6 -->
<g id="edge7" class="edge">
<title>3&#45;&gt;6</title>
<path fill="none" stroke="black" d="M248.47,-89.63C243.51,-83.75 238.58,-76.55 236,-69 232.81,-59.65 236.18,-49.9 241.43,-41.52"/>
<polygon fill="black" stroke="black" points="244.32,-43.5 247.39,-33.36 238.67,-39.37 244.32,-43.5"/>
<text text-anchor="middle" x="252" y="-57.8" font-family="Times,serif" font-size="14.00">0/90</text>
</g>
<!-- 3&#45;&gt;2 -->
<g id="edge8" class="edge">
<title>3&#45;&gt;2</title>
<path fill="none" stroke="black" d="M288.67,-111.02C305.73,-115.76 327.12,-124.68 339,-141 343.72,-147.49 345.83,-155.75 346.59,-163.68"/>
<polygon fill="black" stroke="black" points="343.1,-163.86 346.92,-173.74 350.09,-163.63 343.1,-163.86"/>
<text text-anchor="middle" x="365.5" y="-144.8" font-family="Times,serif" font-size="14.00">0/120</text>
</g>
<!-- 3&#45;&gt;1 -->
<g id="edge9" class="edge">
<title>3&#45;&gt;1</title>
<path fill="none" stroke="black" d="M257.52,-122.77C250.11,-146.1 237.03,-189.8 230,-228 228.65,-235.35 227.64,-243.38 226.9,-250.8"/>
<polygon fill="black" stroke="black" points="223.41,-250.51 226.02,-260.78 230.39,-251.12 223.41,-250.51"/>
<text text-anchor="middle" x="262.5" y="-188.3" font-family="Times,serif" font-size="14.00">0/100</text>
</g>
<!-- 6&#45;&gt;5 -->
<g id="edge10" class="edge">
<title>6&#45;&gt;5</title>
<path fill="none" stroke="black" d="M288.64,-22.02C354.56,-30.23 520,-55.66 520,-104 520,-367 520,-367 520,-367 520,-432.91 423.22,-448.02 368.17,-451.28"/>
<polygon fill="black" stroke="black" points="367.9,-447.79 358.08,-451.77 368.24,-454.78 367.9,-447.79"/>
<text text-anchor="middle" x="540.5" y="-231.8" font-family="Times,serif" font-size="14.00">0/140</text>
</g>
<!-- 6&#45;&gt;4 -->
<g id="edge11" class="edge">
<title>6&#45;&gt;4</title>
<path fill="none" stroke="black" d="M288.65,-21.55C332.96,-27.41 417,-46.15 417,-104 417,-236.5 417,-236.5 417,-236.5 417,-278.34 433.74,-298.67 406,-330 391.97,-345.85 336.49,-355.78 298.64,-360.86"/>
<polygon fill="black" stroke="black" points="297.95,-357.42 288.48,-362.16 298.84,-364.36 297.95,-357.42"/>
<text text-anchor="middle" x="437.5" y="-188.3" font-family="Times,serif" font-size="14.00">0/130</text>
</g>
<!-- 6&#45;&gt;3 -->
<g id="edge12" class="edge">
<title>6&#45;&gt;3</title>
<path fill="none" stroke="black" d="M265.51,-36.02C266.53,-41.71 267.5,-48.1 268,-54 268.63,-61.44 268.28,-69.5 267.54,-76.93"/>
<polygon fill="black" stroke="black" points="264.06,-76.53 266.28,-86.89 271.01,-77.4 264.06,-76.53"/>
<text text-anchor="middle" x="288.5" y="-57.8" font-family="Times,serif" font-size="14.00">90/90</text>
</g>
<!-- 2&#45;&gt;5 -->
<g id="edge13" class="edge">
<title>2&#45;&gt;5</title>
<path fill="none" stroke="black" d="M362.98,-205.48C393.45,-228.32 450.31,-279.15 433,-330 418.47,-372.68 380.96,-410.56 355.71,-432.39"/>
<polygon fill="black" stroke="black" points="353.38,-429.78 347.99,-438.9 357.89,-435.13 353.38,-429.78"/>
<text text-anchor="middle" x="460" y="-318.8" font-family="Times,serif" font-size="14.00">30/180</text>
</g>
<!-- 2&#45;&gt;3 -->
<g id="edge14" class="edge">
<title>2&#45;&gt;3</title>
<path fill="none" stroke="black" d="M320.28,-184.16C305.39,-178.82 287.2,-169.92 276,-156 270.84,-149.59 267.71,-141.35 265.81,-133.41"/>
<polygon fill="black" stroke="black" points="269.21,-132.54 263.97,-123.34 262.33,-133.8 269.21,-132.54"/>
<text text-anchor="middle" x="305.5" y="-144.8" font-family="Times,serif" font-size="14.00">120/120</text>
</g>
<!-- 2&#45;&gt;1 -->
<g id="edge15" class="edge">
<title>2&#45;&gt;1</title>
<path fill="none" stroke="black" d="M336.13,-209.2C329.55,-219.98 319.71,-233.79 308,-243 293.65,-254.29 275.12,-262.56 259.21,-268.22"/>
<polygon fill="black" stroke="black" points="258.07,-264.91 249.71,-271.41 260.3,-271.55 258.07,-264.91"/>
<text text-anchor="middle" x="342.5" y="-231.8" font-family="Times,serif" font-size="14.00">0/150</text>
</g>
<!-- 1&#45;&gt;4 -->
<g id="edge16" class="edge">
<title>1&#45;&gt;4</title>
<path fill="none" stroke="black" d="M215.69,-296C211.07,-306.16 207.53,-319.36 213,-330 217.13,-338.02 224.03,-344.61 231.38,-349.82"/>
<polygon fill="black" stroke="black" points="229.74,-352.92 240.07,-355.31 233.48,-347.01 229.74,-352.92"/>
<text text-anchor="middle" x="238" y="-318.8" font-family="Times,serif" font-size="14.00">60/200</text>
</g>
<!-- 1&#45;&gt;3 -->
<g id="edge17" class="edge">
<title>1&#45;&gt;3</title>
<path fill="none" stroke="black" d="M208.57,-264.28C186.93,-244.46 153.45,-206.6 170,-174 182.78,-148.83 209.73,-130.75 231.34,-119.59"/>
<polygon fill="black" stroke="black" points="233.09,-122.63 240.52,-115.09 230,-116.34 233.09,-122.63"/>
<text text-anchor="middle" x="199.5" y="-188.3" font-family="Times,serif" font-size="14.00">100/100</text>
</g>
<!-- 1&#45;&gt;2 -->
<g id="edge18" class="edge">
<title>1&#45;&gt;2</title>
<path fill="none" stroke="black" d="M228.13,-260.66C230.89,-249.96 235.95,-236.66 245,-228 247.57,-225.54 283.58,-213.26 311.65,-203.94"/>
<polygon fill="black" stroke="black" points="312.79,-207.25 321.19,-200.78 310.59,-200.6 312.79,-207.25"/>
<text text-anchor="middle" x="274.5" y="-231.8" font-family="Times,serif" font-size="14.00">150/150</text>
</g>
</g>
</svg>
