<?xml version="1.0" encoding="UTF-8" standalone="no"?>
<!DOCTYPE svg PUBLIC "-//W3C//DTD SVG 1.1//EN"
 "http://www.w3.org/Graphics/SVG/1.1/DTD/svg11.dtd">
<!-- Generated by graphviz version 2.42.4 (0)
 -->
<!-- Title: G Pages: 1 -->
<svg width="164pt" height="218pt"
 viewBox="0.00 0.00 164.00 218.00" xmlns="http://www.w3.org/2000/svg" xmlns:xlink="http://www.w3.org/1999/xlink">
<g id="graph0" class="graph" transform="scale(1 1) rotate(0) translate(4 214)">
<title>G</title>
<polygon fill="white" stroke="transparent" points="-4,4 -4,-214 160,-214 160,4 -4,4"/>
<!-- 3 -->
<g id="node1" class="node">
<title>3</title>
<ellipse fill="none" stroke="black" cx="83" cy="-192" rx="27" ry="18"/>
<text text-anchor="middle" x="83" y="-188.3" font-family="Times,serif" font-size="14.00">3</text>
</g>
<!-- 2 -->
<g id="node2" class="node">
<title>2</title>
<ellipse fill="none" stroke="black" cx="27" cy="-105" rx="27" ry="18"/>
<text text-anchor="middle" x="27" y="-101.3" font-family="Times,serif" font-size="14.00">2</text>
</g>
<!-- 3&#45;&gt;2 -->
<g id="edge1" class="edge">
<title>3&#45;&gt;2</title>
<path fill="none" stroke="black" d="M57.68,-185.71C41.58,-180.89 21.94,-171.99 12,-156 7.27,-148.4 8.43,-139.21 11.63,-130.8"/>
<polygon fill="black" stroke="black" points="14.79,-132.3 15.91,-121.76 8.47,-129.3 14.79,-132.3"/>
<text text-anchor="middle" x="26" y="-144.8" font-family="Times,serif" font-size="14.00">100</text>
</g>
<!-- 1 -->
<g id="node3" class="node">
<title>1</title>
<ellipse fill="none" stroke="black" cx="83" cy="-18" rx="27" ry="18"/>
<text text-anchor="middle" x="83" y="-14.3" font-family="Times,serif" font-size="14.00">1</text>
</g>
<!-- 3&#45;&gt;1 -->
<g id="edge2" class="edge">
<title>3&#45;&gt;1</title>
<path fill="none" stroke="black" d="M87.1,-174.01C88.28,-168.32 89.41,-161.92 90,-156 94.47,-110.89 94.47,-99.11 90,-54 89.74,-51.41 89.38,-48.73 88.96,-46.05"/>
<polygon fill="black" stroke="black" points="92.36,-45.19 87.1,-35.99 85.47,-46.46 92.36,-45.19"/>
<text text-anchor="middle" x="107" y="-101.3" font-family="Times,serif" font-size="14.00">100</text>
</g>
<!-- 2&#45;&gt;3 -->
<g id="edge3" class="edge">
<title>2&#45;&gt;3</title>
<path fill="none" stroke="black" d="M37.49,-121.92C45.76,-134.48 57.46,-152.23 66.92,-166.59"/>
<polygon fill="black" stroke="black" points="64.04,-168.59 72.47,-175.01 69.89,-164.74 64.04,-168.59"/>
<text text-anchor="middle" x="72" y="-144.8" font-family="Times,serif" font-size="14.00">100</text>
</g>
<!-- 2&#45;&gt;1 -->
<g id="edge4" class="edge">
<title>2&#45;&gt;1</title>
<path fill="none" stroke="black" d="M15.91,-88.24C10.13,-77.92 5.49,-64.47 12,-54 20,-41.13 34.28,-32.86 47.94,-27.61"/>
<polygon fill="black" stroke="black" points="49.34,-30.83 57.68,-24.29 47.09,-24.2 49.34,-30.83"/>
<text text-anchor="middle" x="26" y="-57.8" font-family="Times,serif" font-size="14.00">100</text>
</g>
<!-- 1&#45;&gt;3 -->
<g id="edge5" class="edge">
<title>1&#45;&gt;3</title>
<path fill="none" stroke="black" d="M95.72,-34.02C105.87,-47.07 119.32,-66.98 125,-87 129.37,-102.39 129.37,-107.61 125,-123 120.38,-139.27 110.64,-155.46 101.7,-167.96"/>
<polygon fill="black" stroke="black" points="98.89,-165.87 95.72,-175.98 104.5,-170.06 98.89,-165.87"/>
<text text-anchor="middle" x="142" y="-101.3" font-family="Times,serif" font-size="14.00">100</text>
</g>
<!-- 1&#45;&gt;2 -->
<g id="edge6" class="edge">
<title>1&#45;&gt;2</title>
<path fill="none" stroke="black" d="M72.51,-34.92C64.24,-47.48 52.54,-65.23 43.08,-79.59"/>
<polygon fill="black" stroke="black" points="40.11,-77.74 37.53,-88.01 45.96,-81.59 40.11,-77.74"/>
<text text-anchor="middle" x="72" y="-57.8" font-family="Times,serif" font-size="14.00">100</text>
</g>
</g>
</svg>
