<?xml version="1.0" encoding="UTF-8" standalone="no"?>
<!DOCTYPE svg PUBLIC "-//W3C//DTD SVG 1.1//EN"
 "http://www.w3.org/Graphics/SVG/1.1/DTD/svg11.dtd">
<!-- Generated by graphviz version 2.42.4 (0)
 -->
<!-- Title: G Pages: 1 -->
<svg width="775pt" height="1001pt"
 viewBox="0.00 0.00 775.00 1001.00" xmlns="http://www.w3.org/2000/svg" xmlns:xlink="http://www.w3.org/1999/xlink">
<g id="graph0" class="graph" transform="scale(1 1) rotate(0) translate(4 997)">
<title>G</title>
<polygon fill="white" stroke="transparent" points="-4,4 -4,-997 771,-997 771,4 -4,4"/>
<!-- 11 -->
<g id="node1" class="node">
<title>11</title>
<ellipse fill="none" stroke="black" cx="595" cy="-975" rx="27" ry="18"/>
<text text-anchor="middle" x="595" y="-971.3" font-family="Times,serif" font-size="14.00">11</text>
</g>
<!-- 12 -->
<g id="node4" class="node">
<title>12</title>
<ellipse fill="none" stroke="black" cx="385" cy="-888" rx="27" ry="18"/>
<text text-anchor="middle" x="385" y="-884.3" font-family="Times,serif" font-size="14.00">12</text>
</g>
<!-- 11&#45;&gt;12 -->
<g id="edge1" class="edge">
<title>11&#45;&gt;12</title>
<path fill="none" stroke="black" d="M576.2,-961.75C558.62,-950.7 531.34,-934.61 506,-924 478.12,-912.32 445.06,-903.05 420.55,-896.99"/>
<polygon fill="black" stroke="black" points="421.15,-893.53 410.61,-894.59 419.51,-900.34 421.15,-893.53"/>
<text text-anchor="middle" x="556.5" y="-927.8" font-family="Times,serif" font-size="14.00">0/160</text>
</g>
<!-- 9 -->
<g id="node5" class="node">
<title>9</title>
<ellipse fill="none" stroke="black" cx="160" cy="-366" rx="27" ry="18"/>
<text text-anchor="middle" x="160" y="-362.3" font-family="Times,serif" font-size="14.00">9</text>
</g>
<!-- 11&#45;&gt;9 -->
<g id="edge2" class="edge">
<title>11&#45;&gt;9</title>
<path fill="none" stroke="black" d="M595.64,-956.75C596.23,-939.58 597,-912.47 597,-889 597,-889 597,-889 597,-713 597,-710.84 602.47,-403.59 601,-402 573.85,-372.61 298.72,-367.88 197.29,-367.13"/>
<polygon fill="black" stroke="black" points="197.21,-363.63 187.19,-367.07 197.17,-370.63 197.21,-363.63"/>
<text text-anchor="middle" x="617.5" y="-666.8" font-family="Times,serif" font-size="14.00">0/120</text>
</g>
<!-- 7 -->
<g id="node6" class="node">
<title>7</title>
<ellipse fill="none" stroke="black" cx="518" cy="-18" rx="27" ry="18"/>
<text text-anchor="middle" x="518" y="-14.3" font-family="Times,serif" font-size="14.00">7</text>
</g>
<!-- 11&#45;&gt;7 -->
<g id="edge3" class="edge">
<title>11&#45;&gt;7</title>
<path fill="none" stroke="black" d="M611.78,-960.59C628.91,-945.27 653,-918.48 653,-889 653,-889 653,-889 653,-104 653,-57.12 593.98,-35.07 553.99,-25.52"/>
<polygon fill="black" stroke="black" points="554.55,-22.06 544.03,-23.3 553.03,-28.89 554.55,-22.06"/>
<text text-anchor="middle" x="678" y="-492.8" font-family="Times,serif" font-size="14.00">10/145</text>
</g>
<!-- 10 -->
<g id="node2" class="node">
<title>10</title>
<ellipse fill="none" stroke="black" cx="158" cy="-453" rx="27" ry="18"/>
<text text-anchor="middle" x="158" y="-449.3" font-family="Times,serif" font-size="14.00">10</text>
</g>
<!-- 10&#45;&gt;12 -->
<g id="edge4" class="edge">
<title>10&#45;&gt;12</title>
<path fill="none" stroke="black" d="M151.36,-470.63C145.2,-487.56 137,-514.68 137,-539 137,-802 137,-802 137,-802 137,-846.16 279.48,-872.21 348.45,-882.23"/>
<polygon fill="black" stroke="black" points="348.07,-885.71 358.46,-883.65 349.05,-878.78 348.07,-885.71"/>
<text text-anchor="middle" x="157.5" y="-666.8" font-family="Times,serif" font-size="14.00">0/135</text>
</g>
<!-- 10&#45;&gt;9 -->
<g id="edge5" class="edge">
<title>10&#45;&gt;9</title>
<path fill="none" stroke="black" d="M154.6,-434.88C153.11,-425.22 151.92,-412.94 153,-402 153.26,-399.41 153.62,-396.73 154.04,-394.05"/>
<polygon fill="black" stroke="black" points="157.53,-394.46 155.9,-383.99 150.64,-393.19 157.53,-394.46"/>
<text text-anchor="middle" x="182.5" y="-405.8" font-family="Times,serif" font-size="14.00">110/155</text>
</g>
<!-- 6 -->
<g id="node7" class="node">
<title>6</title>
<ellipse fill="none" stroke="black" cx="225" cy="-540" rx="27" ry="18"/>
<text text-anchor="middle" x="225" y="-536.3" font-family="Times,serif" font-size="14.00">6</text>
</g>
<!-- 10&#45;&gt;6 -->
<g id="edge6" class="edge">
<title>10&#45;&gt;6</title>
<path fill="none" stroke="black" d="M183.66,-459.19C199.99,-463.97 219.9,-472.86 230,-489 234.36,-495.97 234.83,-504.58 233.69,-512.68"/>
<polygon fill="black" stroke="black" points="230.26,-511.99 231.55,-522.51 237.1,-513.48 230.26,-511.99"/>
<text text-anchor="middle" x="255.5" y="-492.8" font-family="Times,serif" font-size="14.00">0/175</text>
</g>
<!-- 8 -->
<g id="node3" class="node">
<title>8</title>
<ellipse fill="none" stroke="black" cx="422" cy="-801" rx="27" ry="18"/>
<text text-anchor="middle" x="422" y="-797.3" font-family="Times,serif" font-size="14.00">8</text>
</g>
<!-- 8&#45;&gt;12 -->
<g id="edge7" class="edge">
<title>8&#45;&gt;12</title>
<path fill="none" stroke="black" d="M402.8,-813.93C395.14,-819.83 387.15,-827.69 383,-837 379.84,-844.09 379.13,-852.32 379.54,-860.04"/>
<polygon fill="black" stroke="black" points="376.07,-860.54 380.68,-870.08 383.03,-859.75 376.07,-860.54"/>
<text text-anchor="middle" x="403.5" y="-840.8" font-family="Times,serif" font-size="14.00">0/155</text>
</g>
<!-- 8&#45;&gt;7 -->
<g id="edge8" class="edge">
<title>8&#45;&gt;7</title>
<path fill="none" stroke="black" d="M437.91,-786.41C454.15,-770.93 477,-744 477,-715 477,-715 477,-715 477,-104 477,-81.61 488.69,-58.89 499.58,-42.59"/>
<polygon fill="black" stroke="black" points="502.57,-44.42 505.48,-34.23 496.85,-40.39 502.57,-44.42"/>
<text text-anchor="middle" x="506.5" y="-405.8" font-family="Times,serif" font-size="14.00">140/165</text>
</g>
<!-- 4 -->
<g id="node9" class="node">
<title>4</title>
<ellipse fill="none" stroke="black" cx="322" cy="-714" rx="27" ry="18"/>
<text text-anchor="middle" x="322" y="-710.3" font-family="Times,serif" font-size="14.00">4</text>
</g>
<!-- 8&#45;&gt;4 -->
<g id="edge9" class="edge">
<title>8&#45;&gt;4</title>
<path fill="none" stroke="black" d="M415.43,-783.48C410.53,-772.85 402.97,-759.32 393,-750 382.28,-739.98 368.15,-732.23 355.32,-726.6"/>
<polygon fill="black" stroke="black" points="356.42,-723.27 345.84,-722.7 353.76,-729.74 356.42,-723.27"/>
<text text-anchor="middle" x="425.5" y="-753.8" font-family="Times,serif" font-size="14.00">0/190</text>
</g>
<!-- 12&#45;&gt;11 -->
<g id="edge10" class="edge">
<title>12&#45;&gt;11</title>
<path fill="none" stroke="black" d="M401.58,-902.22C416.39,-913.44 439.07,-929.24 461,-939 492.75,-953.13 531.36,-962.46 558.97,-967.91"/>
<polygon fill="black" stroke="black" points="558.49,-971.38 568.97,-969.81 559.8,-964.5 558.49,-971.38"/>
<text text-anchor="middle" x="481.5" y="-927.8" font-family="Times,serif" font-size="14.00">0/160</text>
</g>
<!-- 12&#45;&gt;10 -->
<g id="edge11" class="edge">
<title>12&#45;&gt;10</title>
<path fill="none" stroke="black" d="M358.13,-885.44C282.45,-880.34 73,-860.88 73,-802 73,-802 73,-802 73,-539 73,-507.36 102.82,-483.38 127.13,-469.09"/>
<polygon fill="black" stroke="black" points="129.08,-472.01 136.11,-464.09 125.67,-465.89 129.08,-472.01"/>
<text text-anchor="middle" x="93.5" y="-666.8" font-family="Times,serif" font-size="14.00">0/135</text>
</g>
<!-- 12&#45;&gt;8 -->
<g id="edge12" class="edge">
<title>12&#45;&gt;8</title>
<path fill="none" stroke="black" d="M404.2,-875.07C411.86,-869.17 419.85,-861.31 424,-852 427.16,-844.91 427.87,-836.68 427.46,-828.96"/>
<polygon fill="black" stroke="black" points="430.93,-828.46 426.32,-818.92 423.97,-829.25 430.93,-828.46"/>
<text text-anchor="middle" x="447.5" y="-840.8" font-family="Times,serif" font-size="14.00">0/155</text>
</g>
<!-- 9&#45;&gt;11 -->
<g id="edge13" class="edge">
<title>9&#45;&gt;11</title>
<path fill="none" stroke="black" d="M133.22,-369.16C87.67,-374.46 0,-392.39 0,-452 0,-889 0,-889 0,-889 0,-945.58 427.14,-967.3 557.6,-972.62"/>
<polygon fill="black" stroke="black" points="557.76,-976.13 567.89,-973.03 558.04,-969.13 557.76,-976.13"/>
<text text-anchor="middle" x="25" y="-666.8" font-family="Times,serif" font-size="14.00">10/120</text>
</g>
<!-- 9&#45;&gt;10 -->
<g id="edge14" class="edge">
<title>9&#45;&gt;10</title>
<path fill="none" stroke="black" d="M182.22,-376.24C200.25,-385.21 221.27,-399.94 212,-417 207.09,-426.03 198.73,-433.1 190.04,-438.44"/>
<polygon fill="black" stroke="black" points="188.08,-435.52 180.99,-443.39 191.44,-441.66 188.08,-435.52"/>
<text text-anchor="middle" x="235.5" y="-405.8" font-family="Times,serif" font-size="14.00">0/155</text>
</g>
<!-- 5 -->
<g id="node8" class="node">
<title>5</title>
<ellipse fill="none" stroke="black" cx="176" cy="-279" rx="27" ry="18"/>
<text text-anchor="middle" x="176" y="-275.3" font-family="Times,serif" font-size="14.00">5</text>
</g>
<!-- 9&#45;&gt;5 -->
<g id="edge15" class="edge">
<title>9&#45;&gt;5</title>
<path fill="none" stroke="black" d="M180.2,-353.69C188.58,-347.81 197.41,-339.8 202,-330 206.3,-320.83 202.87,-310.9 197.26,-302.33"/>
<polygon fill="black" stroke="black" points="199.97,-300.12 191.13,-294.28 194.41,-304.36 199.97,-300.12"/>
<text text-anchor="middle" x="233.5" y="-318.8" font-family="Times,serif" font-size="14.00">100/130</text>
</g>
<!-- 7&#45;&gt;11 -->
<g id="edge16" class="edge">
<title>7&#45;&gt;11</title>
<path fill="none" stroke="black" d="M545.19,-18.22C601.57,-18.15 726,-26.76 726,-104 726,-889 726,-889 726,-889 726,-934.54 669.59,-956.92 630.8,-966.92"/>
<polygon fill="black" stroke="black" points="629.78,-963.56 620.88,-969.31 631.42,-970.37 629.78,-963.56"/>
<text text-anchor="middle" x="746.5" y="-492.8" font-family="Times,serif" font-size="14.00">0/145</text>
</g>
<!-- 7&#45;&gt;8 -->
<g id="edge17" class="edge">
<title>7&#45;&gt;8</title>
<path fill="none" stroke="black" d="M530.52,-34.23C542.58,-50.47 559,-77.46 559,-104 559,-715 559,-715 559,-715 559,-762.61 498.52,-784.48 457.93,-793.79"/>
<polygon fill="black" stroke="black" points="457.14,-790.38 448.09,-795.9 458.6,-797.23 457.14,-790.38"/>
<text text-anchor="middle" x="579.5" y="-405.8" font-family="Times,serif" font-size="14.00">0/165</text>
</g>
<!-- 3 -->
<g id="node10" class="node">
<title>3</title>
<ellipse fill="none" stroke="black" cx="239" cy="-105" rx="27" ry="18"/>
<text text-anchor="middle" x="239" y="-101.3" font-family="Times,serif" font-size="14.00">3</text>
</g>
<!-- 7&#45;&gt;3 -->
<g id="edge18" class="edge">
<title>7&#45;&gt;3</title>
<path fill="none" stroke="black" d="M491.06,-19.58C450.02,-21.3 370.06,-28.05 308,-54 291.21,-61.02 274.62,-72.85 261.91,-83.23"/>
<polygon fill="black" stroke="black" points="259.54,-80.66 254.16,-89.79 264.06,-86 259.54,-80.66"/>
<text text-anchor="middle" x="337.5" y="-57.8" font-family="Times,serif" font-size="14.00">150/150</text>
</g>
<!-- 6&#45;&gt;10 -->
<g id="edge19" class="edge">
<title>6&#45;&gt;10</title>
<path fill="none" stroke="black" d="M201.82,-530.53C189.59,-524.87 175.4,-516.21 167,-504 162.41,-497.33 159.95,-489.02 158.69,-481.1"/>
<polygon fill="black" stroke="black" points="162.17,-480.66 157.64,-471.08 155.2,-481.39 162.17,-480.66"/>
<text text-anchor="middle" x="196.5" y="-492.8" font-family="Times,serif" font-size="14.00">110/175</text>
</g>
<!-- 6&#45;&gt;4 -->
<g id="edge20" class="edge">
<title>6&#45;&gt;4</title>
<path fill="none" stroke="black" d="M222.69,-558.15C222.01,-568.04 222.26,-580.54 226,-591 230.08,-602.42 275.85,-658.05 302.69,-690.1"/>
<polygon fill="black" stroke="black" points="300.27,-692.68 309.38,-698.09 305.64,-688.18 300.27,-692.68"/>
<text text-anchor="middle" x="286.5" y="-623.3" font-family="Times,serif" font-size="14.00">0/140</text>
</g>
<!-- 2 -->
<g id="node11" class="node">
<title>2</title>
<ellipse fill="none" stroke="black" cx="365" cy="-627" rx="27" ry="18"/>
<text text-anchor="middle" x="365" y="-623.3" font-family="Times,serif" font-size="14.00">2</text>
</g>
<!-- 6&#45;&gt;2 -->
<g id="edge21" class="edge">
<title>6&#45;&gt;2</title>
<path fill="none" stroke="black" d="M246.18,-551.25C259.54,-557.92 277.04,-567.01 292,-576 301.08,-581.46 321.58,-595.55 338.54,-607.39"/>
<polygon fill="black" stroke="black" points="336.81,-610.45 347.02,-613.32 340.83,-604.72 336.81,-610.45"/>
<text text-anchor="middle" x="334.5" y="-579.8" font-family="Times,serif" font-size="14.00">0/170</text>
</g>
<!-- 5&#45;&gt;9 -->
<g id="edge22" class="edge">
<title>5&#45;&gt;9</title>
<path fill="none" stroke="black" d="M165.33,-295.69C161.97,-301.49 158.7,-308.3 157,-315 155.14,-322.33 154.89,-330.46 155.37,-337.99"/>
<polygon fill="black" stroke="black" points="151.91,-338.52 156.45,-348.09 158.87,-337.78 151.91,-338.52"/>
<text text-anchor="middle" x="177.5" y="-318.8" font-family="Times,serif" font-size="14.00">0/130</text>
</g>
<!-- 5&#45;&gt;3 -->
<g id="edge23" class="edge">
<title>5&#45;&gt;3</title>
<path fill="none" stroke="black" d="M154.91,-267.45C122.05,-249.53 64.7,-211.45 88,-174 112.47,-134.67 165.94,-117.91 202.22,-110.89"/>
<polygon fill="black" stroke="black" points="203.18,-114.28 212.42,-109.09 201.96,-107.38 203.18,-114.28"/>
<text text-anchor="middle" x="117.5" y="-188.3" font-family="Times,serif" font-size="14.00">160/160</text>
</g>
<!-- 1 -->
<g id="node12" class="node">
<title>1</title>
<ellipse fill="none" stroke="black" cx="279" cy="-192" rx="27" ry="18"/>
<text text-anchor="middle" x="279" y="-188.3" font-family="Times,serif" font-size="14.00">1</text>
</g>
<!-- 5&#45;&gt;1 -->
<g id="edge24" class="edge">
<title>5&#45;&gt;1</title>
<path fill="none" stroke="black" d="M200.63,-271.44C217.07,-266.03 238.3,-256.95 253,-243 259.84,-236.52 265.21,-227.83 269.25,-219.52"/>
<polygon fill="black" stroke="black" points="272.58,-220.66 273.39,-210.1 266.17,-217.84 272.58,-220.66"/>
<text text-anchor="middle" x="285.5" y="-231.8" font-family="Times,serif" font-size="14.00">0/220</text>
</g>
<!-- 4&#45;&gt;8 -->
<g id="edge25" class="edge">
<title>4&#45;&gt;8</title>
<path fill="none" stroke="black" d="M320.65,-732.02C320.72,-742.59 322.57,-755.86 330,-765 343.53,-781.63 365.89,-790.37 385.18,-794.95"/>
<polygon fill="black" stroke="black" points="384.71,-798.43 395.22,-797.04 386.14,-791.58 384.71,-798.43"/>
<text text-anchor="middle" x="359.5" y="-753.8" font-family="Times,serif" font-size="14.00">140/190</text>
</g>
<!-- 4&#45;&gt;6 -->
<g id="edge26" class="edge">
<title>4&#45;&gt;6</title>
<path fill="none" stroke="black" d="M296.05,-708.56C263.58,-701.47 209.28,-684.15 185,-645 168.82,-618.9 188.08,-585.19 205.05,-563.33"/>
<polygon fill="black" stroke="black" points="207.77,-565.54 211.37,-555.58 202.34,-561.12 207.77,-565.54"/>
<text text-anchor="middle" x="210" y="-623.3" font-family="Times,serif" font-size="14.00">40/140</text>
</g>
<!-- 4&#45;&gt;2 -->
<g id="edge27" class="edge">
<title>4&#45;&gt;2</title>
<path fill="none" stroke="black" d="M311.21,-697.42C305.55,-687.17 300.94,-673.73 307,-663 312.62,-653.04 322.34,-645.6 332.23,-640.2"/>
<polygon fill="black" stroke="black" points="333.8,-643.33 341.25,-635.8 330.73,-637.04 333.8,-643.33"/>
<text text-anchor="middle" x="327.5" y="-666.8" font-family="Times,serif" font-size="14.00">0/180</text>
</g>
<!-- 3&#45;&gt;7 -->
<g id="edge28" class="edge">
<title>3&#45;&gt;7</title>
<path fill="none" stroke="black" d="M264.13,-97.55C290.02,-90.8 331.49,-79.72 367,-69 407.85,-56.66 454.4,-41 484.89,-30.52"/>
<polygon fill="black" stroke="black" points="486.27,-33.75 494.58,-27.18 483.99,-27.13 486.27,-33.75"/>
<text text-anchor="middle" x="432.5" y="-57.8" font-family="Times,serif" font-size="14.00">0/150</text>
</g>
<!-- 3&#45;&gt;5 -->
<g id="edge29" class="edge">
<title>3&#45;&gt;5</title>
<path fill="none" stroke="black" d="M229.08,-121.86C225.47,-127.8 221.44,-134.64 218,-141 198.32,-177.37 194.89,-187.85 185,-228 183.19,-235.33 181.59,-243.36 180.25,-250.79"/>
<polygon fill="black" stroke="black" points="176.78,-250.32 178.55,-260.76 183.68,-251.49 176.78,-250.32"/>
<text text-anchor="middle" x="222.5" y="-188.3" font-family="Times,serif" font-size="14.00">0/160</text>
</g>
<!-- 3&#45;&gt;1 -->
<g id="edge30" class="edge">
<title>3&#45;&gt;1</title>
<path fill="none" stroke="black" d="M228.29,-121.54C222.67,-131.76 218.07,-145.2 224,-156 229.11,-165.3 237.85,-172.48 246.88,-177.85"/>
<polygon fill="black" stroke="black" points="245.41,-181.03 255.88,-182.63 248.69,-174.85 245.41,-181.03"/>
<text text-anchor="middle" x="244.5" y="-144.8" font-family="Times,serif" font-size="14.00">0/200</text>
</g>
<!-- 2&#45;&gt;6 -->
<g id="edge31" class="edge">
<title>2&#45;&gt;6</title>
<path fill="none" stroke="black" d="M341.78,-617.77C333.11,-614.83 323.16,-611.6 314,-609 280.61,-599.5 262.81,-615.28 238,-591 231.8,-584.94 228.43,-576.32 226.64,-567.94"/>
<polygon fill="black" stroke="black" points="230.09,-567.4 225.14,-558.04 223.17,-568.45 230.09,-567.4"/>
<text text-anchor="middle" x="263" y="-579.8" font-family="Times,serif" font-size="14.00">70/170</text>
</g>
<!-- 2&#45;&gt;4 -->
<g id="edge32" class="edge">
<title>2&#45;&gt;4</title>
<path fill="none" stroke="black" d="M360.59,-645.21C357.7,-655.11 353.45,-667.61 348,-678 345.94,-681.92 343.47,-685.88 340.87,-689.65"/>
<polygon fill="black" stroke="black" points="337.83,-687.87 334.74,-698.01 343.48,-692.01 337.83,-687.87"/>
<text text-anchor="middle" x="383.5" y="-666.8" font-family="Times,serif" font-size="14.00">180/180</text>
</g>
<!-- 2&#45;&gt;1 -->
<g id="edge33" class="edge">
<title>2&#45;&gt;1</title>
<path fill="none" stroke="black" d="M362.07,-608.97C356,-573.38 341.8,-488.51 332,-417 320.51,-333.22 344.51,-305.2 310,-228 307.86,-223.21 304.83,-218.61 301.49,-214.41"/>
<polygon fill="black" stroke="black" points="304.08,-212.06 294.84,-206.88 298.83,-216.69 304.08,-212.06"/>
<text text-anchor="middle" x="352.5" y="-405.8" font-family="Times,serif" font-size="14.00">0/250</text>
</g>
<!-- 1&#45;&gt;5 -->
<g id="edge34" class="edge">
<title>1&#45;&gt;5</title>
<path fill="none" stroke="black" d="M253.94,-198.89C236.65,-204.06 214.15,-213.13 199,-228 192.43,-234.45 187.55,-243.12 184.02,-251.43"/>
<polygon fill="black" stroke="black" points="180.71,-250.27 180.47,-260.87 187.26,-252.74 180.71,-250.27"/>
<text text-anchor="middle" x="224" y="-231.8" font-family="Times,serif" font-size="14.00">60/220</text>
</g>
<!-- 1&#45;&gt;3 -->
<g id="edge35" class="edge">
<title>1&#45;&gt;3</title>
<path fill="none" stroke="black" d="M275.81,-173.77C273.58,-163.86 270.08,-151.36 265,-141 263.05,-137.02 260.63,-133.04 258.07,-129.25"/>
<polygon fill="black" stroke="black" points="260.68,-126.89 251.95,-120.89 255.03,-131.03 260.68,-126.89"/>
<text text-anchor="middle" x="300.5" y="-144.8" font-family="Times,serif" font-size="14.00">200/200</text>
</g>
<!-- 1&#45;&gt;2 -->
<g id="edge36" class="edge">
<title>1&#45;&gt;2</title>
<path fill="none" stroke="black" d="M303.88,-199.23C337.97,-209.43 395,-233.18 395,-278 395,-541 395,-541 395,-541 395,-562.06 386.71,-584.47 378.84,-600.99"/>
<polygon fill="black" stroke="black" points="375.69,-599.47 374.33,-609.98 381.94,-602.61 375.69,-599.47"/>
<text text-anchor="middle" x="424.5" y="-405.8" font-family="Times,serif" font-size="14.00">250/250</text>
</g>
</g>
</svg>
