<?xml version="1.0" encoding="UTF-8" standalone="no"?>
<!DOCTYPE svg PUBLIC "-//W3C//DTD SVG 1.1//EN"
 "http://www.w3.org/Graphics/SVG/1.1/DTD/svg11.dtd">
<!-- Generated by graphviz version 2.42.4 (0)
 -->
<!-- Title: G Pages: 1 -->
<svg width="684pt" height="653pt"
 viewBox="0.00 0.00 684.00 653.00" xmlns="http://www.w3.org/2000/svg" xmlns:xlink="http://www.w3.org/1999/xlink">
<g id="graph0" class="graph" transform="scale(1 1) rotate(0) translate(4 649)">
<title>G</title>
<polygon fill="white" stroke="transparent" points="-4,4 -4,-649 680,-649 680,4 -4,4"/>
<!-- 9 -->
<g id="node1" class="node">
<title>9</title>
<ellipse fill="none" stroke="black" cx="514" cy="-627" rx="27" ry="18"/>
<text text-anchor="middle" x="514" y="-623.3" font-family="Times,serif" font-size="14.00">9</text>
</g>
<!-- 1 -->
<g id="node5" class="node">
<title>1</title>
<ellipse fill="none" stroke="black" cx="286" cy="-540" rx="27" ry="18"/>
<text text-anchor="middle" x="286" y="-536.3" font-family="Times,serif" font-size="14.00">1</text>
</g>
<!-- 9&#45;&gt;1 -->
<g id="edge1" class="edge">
<title>9&#45;&gt;1</title>
<path fill="none" stroke="black" d="M487.45,-623.31C455.4,-619.34 400.42,-610.2 357,-591 340.03,-583.5 322.98,-571.65 309.83,-561.38"/>
<polygon fill="black" stroke="black" points="311.78,-558.46 301.8,-554.91 307.4,-563.91 311.78,-558.46"/>
<text text-anchor="middle" x="377.5" y="-579.8" font-family="Times,serif" font-size="14.00">0/524</text>
</g>
<!-- 3 -->
<g id="node6" class="node">
<title>3</title>
<ellipse fill="none" stroke="black" cx="475" cy="-366" rx="27" ry="18"/>
<text text-anchor="middle" x="475" y="-362.3" font-family="Times,serif" font-size="14.00">3</text>
</g>
<!-- 9&#45;&gt;3 -->
<g id="edge2" class="edge">
<title>9&#45;&gt;3</title>
<path fill="none" stroke="black" d="M528,-611.54C532.77,-605.65 537.53,-598.47 540,-591 554.24,-547.96 545.6,-533.99 540,-489 535.07,-449.42 539.44,-435.63 518,-402 513.94,-395.64 508.34,-389.89 502.52,-384.98"/>
<polygon fill="black" stroke="black" points="504.62,-382.18 494.57,-378.82 500.33,-387.71 504.62,-382.18"/>
<text text-anchor="middle" x="580.5" y="-492.8" font-family="Times,serif" font-size="14.00">1053/1053</text>
</g>
<!-- 4 -->
<g id="node7" class="node">
<title>4</title>
<ellipse fill="none" stroke="black" cx="176" cy="-18" rx="27" ry="18"/>
<text text-anchor="middle" x="176" y="-14.3" font-family="Times,serif" font-size="14.00">4</text>
</g>
<!-- 9&#45;&gt;4 -->
<g id="edge3" class="edge">
<title>9&#45;&gt;4</title>
<path fill="none" stroke="black" d="M487.09,-624.43C381.33,-617.89 0,-590.86 0,-541 0,-541 0,-541 0,-104 0,-42.89 87.1,-25.69 138.75,-20.87"/>
<polygon fill="black" stroke="black" points="139.21,-24.34 148.89,-20.04 138.63,-17.37 139.21,-24.34"/>
<text text-anchor="middle" x="20.5" y="-318.8" font-family="Times,serif" font-size="14.00">0/766</text>
</g>
<!-- 7 -->
<g id="node2" class="node">
<title>7</title>
<ellipse fill="none" stroke="black" cx="246" cy="-366" rx="27" ry="18"/>
<text text-anchor="middle" x="246" y="-362.3" font-family="Times,serif" font-size="14.00">7</text>
</g>
<!-- 6 -->
<g id="node4" class="node">
<title>6</title>
<ellipse fill="none" stroke="black" cx="383" cy="-453" rx="27" ry="18"/>
<text text-anchor="middle" x="383" y="-449.3" font-family="Times,serif" font-size="14.00">6</text>
</g>
<!-- 7&#45;&gt;6 -->
<g id="edge5" class="edge">
<title>7&#45;&gt;6</title>
<path fill="none" stroke="black" d="M244.98,-383.99C245.28,-394.82 247.58,-408.4 256,-417 281.8,-443.35 301.62,-424.58 337,-435 341.44,-436.31 346.07,-437.82 350.6,-439.41"/>
<polygon fill="black" stroke="black" points="349.68,-442.79 360.27,-442.91 352.06,-436.21 349.68,-442.79"/>
<text text-anchor="middle" x="285.5" y="-405.8" font-family="Times,serif" font-size="14.00">332/837</text>
</g>
<!-- 7&#45;&gt;1 -->
<g id="edge4" class="edge">
<title>7&#45;&gt;1</title>
<path fill="none" stroke="black" d="M243.04,-384.23C241.85,-393.92 241.15,-406.2 243,-417 248.89,-451.44 263.5,-489.07 274.06,-513.3"/>
<polygon fill="black" stroke="black" points="270.89,-514.8 278.16,-522.51 277.29,-511.95 270.89,-514.8"/>
<text text-anchor="middle" x="286.5" y="-449.3" font-family="Times,serif" font-size="14.00">811/811</text>
</g>
<!-- 0 -->
<g id="node9" class="node">
<title>0</title>
<ellipse fill="none" stroke="black" cx="261" cy="-279" rx="27" ry="18"/>
<text text-anchor="middle" x="261" y="-275.3" font-family="Times,serif" font-size="14.00">0</text>
</g>
<!-- 7&#45;&gt;0 -->
<g id="edge6" class="edge">
<title>7&#45;&gt;0</title>
<path fill="none" stroke="black" d="M233.2,-350.12C226.25,-340.17 220.02,-326.8 225,-315 227.39,-309.34 231.19,-304.15 235.45,-299.59"/>
<polygon fill="black" stroke="black" points="238.02,-301.97 242.87,-292.55 233.21,-296.89 238.02,-301.97"/>
<text text-anchor="middle" x="250" y="-318.8" font-family="Times,serif" font-size="14.00">0/1435</text>
</g>
<!-- 5 -->
<g id="node3" class="node">
<title>5</title>
<ellipse fill="none" stroke="black" cx="177" cy="-192" rx="27" ry="18"/>
<text text-anchor="middle" x="177" y="-188.3" font-family="Times,serif" font-size="14.00">5</text>
</g>
<!-- 5&#45;&gt;1 -->
<g id="edge7" class="edge">
<title>5&#45;&gt;1</title>
<path fill="none" stroke="black" d="M168.77,-209.48C161.16,-226.28 151,-253.31 151,-278 151,-454 151,-454 151,-454 151,-500.88 210.02,-522.93 250.01,-532.48"/>
<polygon fill="black" stroke="black" points="249.45,-535.94 259.97,-534.7 250.97,-529.11 249.45,-535.94"/>
<text text-anchor="middle" x="171.5" y="-362.3" font-family="Times,serif" font-size="14.00">0/879</text>
</g>
<!-- 5&#45;&gt;4 -->
<g id="edge8" class="edge">
<title>5&#45;&gt;4</title>
<path fill="none" stroke="black" d="M203.3,-187.44C222.31,-183.35 246.72,-174.6 259,-156 283.98,-118.17 284.07,-91.77 259,-54 248.52,-38.21 229.36,-29.52 212.08,-24.76"/>
<polygon fill="black" stroke="black" points="212.75,-21.32 202.21,-22.38 211.11,-28.12 212.75,-21.32"/>
<text text-anchor="middle" x="302" y="-101.3" font-family="Times,serif" font-size="14.00">0/1106</text>
</g>
<!-- 2 -->
<g id="node8" class="node">
<title>2</title>
<ellipse fill="none" stroke="black" cx="208" cy="-105" rx="27" ry="18"/>
<text text-anchor="middle" x="208" y="-101.3" font-family="Times,serif" font-size="14.00">2</text>
</g>
<!-- 5&#45;&gt;2 -->
<g id="edge10" class="edge">
<title>5&#45;&gt;2</title>
<path fill="none" stroke="black" d="M156.01,-180.35C140.09,-170.77 122.43,-155.95 132,-141 137.09,-133.05 156.59,-124.16 174.57,-117.32"/>
<polygon fill="black" stroke="black" points="176.11,-120.48 184.29,-113.76 173.7,-113.91 176.11,-120.48"/>
<text text-anchor="middle" x="166" y="-144.8" font-family="Times,serif" font-size="14.00">766/1054</text>
</g>
<!-- 5&#45;&gt;0 -->
<g id="edge9" class="edge">
<title>5&#45;&gt;0</title>
<path fill="none" stroke="black" d="M175.88,-210.32C176.08,-220.75 177.99,-233.75 185,-243 194.91,-256.07 210.87,-264.42 225.61,-269.67"/>
<polygon fill="black" stroke="black" points="224.94,-273.13 235.53,-272.83 227.07,-266.46 224.94,-273.13"/>
<text text-anchor="middle" x="205.5" y="-231.8" font-family="Times,serif" font-size="14.00">0/343</text>
</g>
<!-- 6&#45;&gt;7 -->
<g id="edge13" class="edge">
<title>6&#45;&gt;7</title>
<path fill="none" stroke="black" d="M366.49,-438.67C353.04,-428.1 333.34,-413.29 315,-402 302.9,-394.56 289.03,-387.29 276.91,-381.33"/>
<polygon fill="black" stroke="black" points="278.16,-378.04 267.63,-376.84 275.11,-384.34 278.16,-378.04"/>
<text text-anchor="middle" x="356.5" y="-405.8" font-family="Times,serif" font-size="14.00">0/837</text>
</g>
<!-- 6&#45;&gt;1 -->
<g id="edge11" class="edge">
<title>6&#45;&gt;1</title>
<path fill="none" stroke="black" d="M381.15,-471.08C379.2,-481.68 375.2,-494.95 367,-504 354.99,-517.25 337.08,-525.7 321.16,-530.96"/>
<polygon fill="black" stroke="black" points="320.14,-527.62 311.57,-533.85 322.15,-534.32 320.14,-527.62"/>
<text text-anchor="middle" x="395.5" y="-492.8" font-family="Times,serif" font-size="14.00">0/954</text>
</g>
<!-- 6&#45;&gt;3 -->
<g id="edge12" class="edge">
<title>6&#45;&gt;3</title>
<path fill="none" stroke="black" d="M404.93,-442.37C417.1,-436.3 431.95,-427.6 443,-417 450.43,-409.87 456.93,-400.7 462.1,-392.16"/>
<polygon fill="black" stroke="black" points="465.26,-393.68 467.16,-383.26 459.17,-390.22 465.26,-393.68"/>
<text text-anchor="middle" x="484.5" y="-405.8" font-family="Times,serif" font-size="14.00">433/433</text>
</g>
<!-- 1&#45;&gt;9 -->
<g id="edge14" class="edge">
<title>1&#45;&gt;9</title>
<path fill="none" stroke="black" d="M310.72,-547.92C333.58,-554.51 368.39,-565.03 398,-576 427.33,-586.87 459.98,-601.15 483.15,-611.66"/>
<polygon fill="black" stroke="black" points="481.92,-614.94 492.47,-615.92 484.83,-608.58 481.92,-614.94"/>
<text text-anchor="middle" x="462.5" y="-579.8" font-family="Times,serif" font-size="14.00">287/524</text>
</g>
<!-- 1&#45;&gt;7 -->
<g id="edge15" class="edge">
<title>1&#45;&gt;7</title>
<path fill="none" stroke="black" d="M264.49,-528.71C244.14,-517.64 214.85,-497.93 202,-471 188.81,-443.35 208.11,-410.71 225.16,-389.47"/>
<polygon fill="black" stroke="black" points="227.98,-391.55 231.75,-381.65 222.63,-387.04 227.98,-391.55"/>
<text text-anchor="middle" x="222.5" y="-449.3" font-family="Times,serif" font-size="14.00">0/811</text>
</g>
<!-- 1&#45;&gt;5 -->
<g id="edge17" class="edge">
<title>1&#45;&gt;5</title>
<path fill="none" stroke="black" d="M259.62,-534.99C199.2,-525.06 56,-497 56,-454 56,-454 56,-454 56,-278 56,-235.64 106.26,-212.58 141.99,-201.53"/>
<polygon fill="black" stroke="black" points="143.01,-204.88 151.63,-198.73 141.05,-198.16 143.01,-204.88"/>
<text text-anchor="middle" x="85.5" y="-362.3" font-family="Times,serif" font-size="14.00">423/879</text>
</g>
<!-- 1&#45;&gt;6 -->
<g id="edge16" class="edge">
<title>1&#45;&gt;6</title>
<path fill="none" stroke="black" d="M288.63,-521.92C291.04,-511.32 295.58,-498.05 304,-489 307.55,-485.18 330.53,-475.2 350.8,-466.86"/>
<polygon fill="black" stroke="black" points="352.2,-470.07 360.14,-463.06 349.56,-463.59 352.2,-470.07"/>
<text text-anchor="middle" x="333.5" y="-492.8" font-family="Times,serif" font-size="14.00">101/954</text>
</g>
<!-- 3&#45;&gt;9 -->
<g id="edge18" class="edge">
<title>3&#45;&gt;9</title>
<path fill="none" stroke="black" d="M497.11,-376.68C532.27,-393.51 599.36,-431.93 623,-489 643.78,-539.17 582.46,-586.05 543.51,-609.79"/>
<polygon fill="black" stroke="black" points="541.46,-606.94 534.63,-615.04 545.02,-612.96 541.46,-606.94"/>
<text text-anchor="middle" x="651" y="-492.8" font-family="Times,serif" font-size="14.00">0/1053</text>
</g>
<!-- 3&#45;&gt;6 -->
<g id="edge19" class="edge">
<title>3&#45;&gt;6</title>
<path fill="none" stroke="black" d="M449.86,-372.62C432.97,-377.63 411.43,-386.63 398,-402 392.38,-408.43 388.87,-416.9 386.67,-425.04"/>
<polygon fill="black" stroke="black" points="383.21,-424.48 384.53,-434.99 390.06,-425.95 383.21,-424.48"/>
<text text-anchor="middle" x="418.5" y="-405.8" font-family="Times,serif" font-size="14.00">0/433</text>
</g>
<!-- 4&#45;&gt;9 -->
<g id="edge20" class="edge">
<title>4&#45;&gt;9</title>
<path fill="none" stroke="black" d="M202.99,-19.55C287.11,-21.97 539,-34.99 539,-104 539,-367 539,-367 539,-367 539,-452.08 525.47,-552.15 518.32,-599.11"/>
<polygon fill="black" stroke="black" points="514.84,-598.67 516.77,-609.08 521.76,-599.74 514.84,-598.67"/>
<text text-anchor="middle" x="568.5" y="-318.8" font-family="Times,serif" font-size="14.00">766/766</text>
</g>
<!-- 4&#45;&gt;5 -->
<g id="edge21" class="edge">
<title>4&#45;&gt;5</title>
<path fill="none" stroke="black" d="M153.01,-27.61C141.49,-33.24 128.62,-41.83 122,-54 107.36,-80.94 120.15,-92.39 122,-123 122.89,-137.75 118.34,-143.37 126,-156 130.89,-164.07 138.44,-170.73 146.24,-175.99"/>
<polygon fill="black" stroke="black" points="144.67,-179.13 155.03,-181.34 148.31,-173.15 144.67,-179.13"/>
<text text-anchor="middle" x="147" y="-101.3" font-family="Times,serif" font-size="14.00">0/1106</text>
</g>
<!-- 4&#45;&gt;2 -->
<g id="edge22" class="edge">
<title>4&#45;&gt;2</title>
<path fill="none" stroke="black" d="M188.58,-34.18C192.84,-40.05 197.21,-47.02 200,-54 202.84,-61.1 204.67,-69.15 205.85,-76.69"/>
<polygon fill="black" stroke="black" points="202.41,-77.35 207.13,-86.84 209.35,-76.48 202.41,-77.35"/>
<text text-anchor="middle" x="230" y="-57.8" font-family="Times,serif" font-size="14.00">0/1364</text>
</g>
<!-- 2&#45;&gt;5 -->
<g id="edge24" class="edge">
<title>2&#45;&gt;5</title>
<path fill="none" stroke="black" d="M207.05,-123.13C206.07,-133.01 204.07,-145.51 200,-156 198.53,-159.78 196.61,-163.58 194.51,-167.2"/>
<polygon fill="black" stroke="black" points="191.48,-165.44 189.04,-175.75 197.38,-169.21 191.48,-165.44"/>
<text text-anchor="middle" x="230" y="-144.8" font-family="Times,serif" font-size="14.00">0/1054</text>
</g>
<!-- 2&#45;&gt;4 -->
<g id="edge23" class="edge">
<title>2&#45;&gt;4</title>
<path fill="none" stroke="black" d="M183.88,-96.68C162.76,-89.73 134.47,-78.9 128,-69 119.6,-56.16 131.48,-43.7 145.52,-34.43"/>
<polygon fill="black" stroke="black" points="147.62,-37.26 154.38,-29.1 144.01,-31.26 147.62,-37.26"/>
<text text-anchor="middle" x="162" y="-57.8" font-family="Times,serif" font-size="14.00">766/1364</text>
</g>
<!-- 0&#45;&gt;7 -->
<g id="edge25" class="edge">
<title>0&#45;&gt;7</title>
<path fill="none" stroke="black" d="M270.51,-295.95C275.19,-305.86 279.03,-318.81 275,-330 273.32,-334.67 270.71,-339.16 267.73,-343.28"/>
<polygon fill="black" stroke="black" points="264.92,-341.19 261.28,-351.14 270.33,-345.63 264.92,-341.19"/>
<text text-anchor="middle" x="314.5" y="-318.8" font-family="Times,serif" font-size="14.00">1143/1435</text>
</g>
<!-- 0&#45;&gt;5 -->
<g id="edge27" class="edge">
<title>0&#45;&gt;5</title>
<path fill="none" stroke="black" d="M251.54,-261.63C245.11,-251.31 235.99,-238.09 226,-228 219.65,-221.59 212.02,-215.53 204.69,-210.31"/>
<polygon fill="black" stroke="black" points="206.55,-207.34 196.32,-204.59 202.6,-213.12 206.55,-207.34"/>
<text text-anchor="middle" x="267.5" y="-231.8" font-family="Times,serif" font-size="14.00">343/343</text>
</g>
<!-- 8 -->
<g id="node10" class="node">
<title>8</title>
<ellipse fill="none" stroke="black" cx="362" cy="-192" rx="27" ry="18"/>
<text text-anchor="middle" x="362" y="-188.3" font-family="Times,serif" font-size="14.00">8</text>
</g>
<!-- 0&#45;&gt;8 -->
<g id="edge26" class="edge">
<title>0&#45;&gt;8</title>
<path fill="none" stroke="black" d="M288.06,-277.93C314.3,-276.23 352.88,-269.07 372,-243 377.12,-236.02 376.87,-227.08 374.61,-218.7"/>
<polygon fill="black" stroke="black" points="377.89,-217.49 371.22,-209.26 371.3,-219.85 377.89,-217.49"/>
<text text-anchor="middle" x="396.5" y="-231.8" font-family="Times,serif" font-size="14.00">0/464</text>
</g>
<!-- 8&#45;&gt;0 -->
<g id="edge28" class="edge">
<title>8&#45;&gt;0</title>
<path fill="none" stroke="black" d="M345.81,-206.62C329.41,-220.43 303.84,-241.94 285.07,-257.75"/>
<polygon fill="black" stroke="black" points="282.62,-255.23 277.23,-264.34 287.13,-260.58 282.62,-255.23"/>
<text text-anchor="middle" x="337.5" y="-231.8" font-family="Times,serif" font-size="14.00">0/464</text>
</g>
</g>
</svg>
