<?xml version="1.0" encoding="UTF-8" standalone="no"?>
<!DOCTYPE svg PUBLIC "-//W3C//DTD SVG 1.1//EN"
 "http://www.w3.org/Graphics/SVG/1.1/DTD/svg11.dtd">
<!-- Generated by graphviz version 2.43.0 (0)
 -->
<!-- Title: G Pages: 1 -->
<svg width="868pt" height="740pt"
 viewBox="0.00 0.00 868.00 740.00" xmlns="http://www.w3.org/2000/svg" xmlns:xlink="http://www.w3.org/1999/xlink">
<g id="graph0" class="graph" transform="scale(1 1) rotate(0) translate(4 736)">
<title>G</title>
<polygon fill="white" stroke="transparent" points="-4,4 -4,-736 864,-736 864,4 -4,4"/>
<!-- 1 -->
<g id="node1" class="node">
<title>1</title>
<ellipse fill="none" stroke="black" cx="482" cy="-714" rx="27" ry="18"/>
<text text-anchor="middle" x="482" y="-710.3" font-family="Times,serif" font-size="14.00">1</text>
</g>
<!-- 9 -->
<g id="node2" class="node">
<title>9</title>
<ellipse fill="none" stroke="black" cx="367" cy="-627" rx="27" ry="18"/>
<text text-anchor="middle" x="367" y="-623.3" font-family="Times,serif" font-size="14.00">9</text>
</g>
<!-- 1&#45;&gt;9 -->
<g id="edge1" class="edge">
<title>1&#45;&gt;9</title>
<path fill="none" stroke="black" d="M466.48,-698.77C454.87,-688.4 438.4,-674.24 423,-663 414.32,-656.66 404.49,-650.27 395.51,-644.72"/>
<polygon fill="black" stroke="black" points="397.26,-641.68 386.89,-639.48 393.62,-647.66 397.26,-641.68"/>
<text text-anchor="middle" x="470.5" y="-666.8" font-family="Times,serif" font-size="14.00">811/524</text>
</g>
<!-- 7 -->
<g id="node5" class="node">
<title>7</title>
<ellipse fill="none" stroke="black" cx="544" cy="-192" rx="27" ry="18"/>
<text text-anchor="middle" x="544" y="-188.3" font-family="Times,serif" font-size="14.00">7</text>
</g>
<!-- 1&#45;&gt;7 -->
<g id="edge2" class="edge">
<title>1&#45;&gt;7</title>
<path fill="none" stroke="black" d="M493.3,-697.58C504.18,-681.19 519,-654.07 519,-628 519,-628 519,-628 519,-495.5 519,-414.03 553.33,-396.44 551,-315 550.07,-282.49 547.74,-245.16 546.03,-220.45"/>
<polygon fill="black" stroke="black" points="549.51,-220.09 545.31,-210.36 542.53,-220.58 549.51,-220.09"/>
<text text-anchor="middle" x="555.5" y="-449.3" font-family="Times,serif" font-size="14.00">811/811</text>
</g>
<!-- 6 -->
<g id="node6" class="node">
<title>6</title>
<ellipse fill="none" stroke="black" cx="628" cy="-105" rx="27" ry="18"/>
<text text-anchor="middle" x="628" y="-101.3" font-family="Times,serif" font-size="14.00">6</text>
</g>
<!-- 1&#45;&gt;6 -->
<g id="edge4" class="edge">
<title>1&#45;&gt;6</title>
<path fill="none" stroke="black" d="M508.15,-708.94C568.04,-698.92 710,-670.67 710,-628 710,-628 710,-628 710,-191 710,-159.91 681.23,-135.83 657.78,-121.36"/>
<polygon fill="black" stroke="black" points="659.52,-118.32 649.12,-116.29 655.98,-124.37 659.52,-118.32"/>
<text text-anchor="middle" x="744" y="-405.8" font-family="Times,serif" font-size="14.00">1055/954</text>
</g>
<!-- 5 -->
<g id="node9" class="node">
<title>5</title>
<ellipse fill="none" stroke="black" cx="222" cy="-366" rx="27" ry="18"/>
<text text-anchor="middle" x="222" y="-362.3" font-family="Times,serif" font-size="14.00">5</text>
</g>
<!-- 1&#45;&gt;5 -->
<g id="edge3" class="edge">
<title>1&#45;&gt;5</title>
<path fill="none" stroke="black" d="M454.79,-712.84C366.7,-711.59 95,-701.78 95,-628 95,-628 95,-628 95,-452 95,-407.86 148.63,-385.19 186.19,-374.73"/>
<polygon fill="black" stroke="black" points="187.51,-378.01 196.3,-372.1 185.74,-371.23 187.51,-378.01"/>
<text text-anchor="middle" x="129" y="-536.3" font-family="Times,serif" font-size="14.00">1302/879</text>
</g>
<!-- 9&#45;&gt;1 -->
<g id="edge5" class="edge">
<title>9&#45;&gt;1</title>
<path fill="none" stroke="black" d="M359.1,-644.38C355.25,-654.96 352.83,-668.48 360,-678 379.34,-703.67 416.25,-711.45 444.43,-713.39"/>
<polygon fill="black" stroke="black" points="444.59,-716.9 454.74,-713.88 444.92,-709.91 444.59,-716.9"/>
<text text-anchor="middle" x="389.5" y="-666.8" font-family="Times,serif" font-size="14.00">287/524</text>
</g>
<!-- 3 -->
<g id="node3" class="node">
<title>3</title>
<ellipse fill="none" stroke="black" cx="502" cy="-18" rx="27" ry="18"/>
<text text-anchor="middle" x="502" y="-14.3" font-family="Times,serif" font-size="14.00">3</text>
</g>
<!-- 9&#45;&gt;3 -->
<g id="edge6" class="edge">
<title>9&#45;&gt;3</title>
<path fill="none" stroke="black" d="M342.73,-619.05C324.76,-613.22 300.17,-603.8 281,-591 194.73,-533.38 133,-514.24 133,-410.5 133,-410.5 133,-410.5 133,-104 133,-36.43 370.96,-22.57 464.69,-19.73"/>
<polygon fill="black" stroke="black" points="464.97,-23.22 474.87,-19.45 464.77,-16.23 464.97,-23.22"/>
<text text-anchor="middle" x="171.5" y="-318.8" font-family="Times,serif" font-size="14.00">2106/1053</text>
</g>
<!-- 4 -->
<g id="node4" class="node">
<title>4</title>
<ellipse fill="none" stroke="black" cx="299" cy="-540" rx="27" ry="18"/>
<text text-anchor="middle" x="299" y="-536.3" font-family="Times,serif" font-size="14.00">4</text>
</g>
<!-- 9&#45;&gt;4 -->
<g id="edge7" class="edge">
<title>9&#45;&gt;4</title>
<path fill="none" stroke="black" d="M368.23,-608.92C368.14,-598.58 366.48,-585.59 360,-576 353.23,-565.99 342.57,-558.48 332.05,-553.05"/>
<polygon fill="black" stroke="black" points="333.48,-549.85 322.94,-548.79 330.51,-556.19 333.48,-549.85"/>
<text text-anchor="middle" x="395.5" y="-579.8" font-family="Times,serif" font-size="14.00">766/766</text>
</g>
<!-- 3&#45;&gt;9 -->
<g id="edge8" class="edge">
<title>3&#45;&gt;9</title>
<path fill="none" stroke="black" d="M499.52,-35.97C493.04,-81.18 475.74,-208.42 470,-315 469.64,-321.66 469.72,-323.34 470,-330 470.67,-345.6 473,-349.39 473,-365 473,-541 473,-541 473,-541 473,-578.67 431.74,-602.42 400.71,-614.96"/>
<polygon fill="black" stroke="black" points="399.15,-611.81 391.05,-618.64 401.64,-618.35 399.15,-611.81"/>
<text text-anchor="middle" x="508.5" y="-318.8" font-family="Times,serif" font-size="14.00">1053/1053</text>
</g>
<!-- 3&#45;&gt;6 -->
<g id="edge9" class="edge">
<title>3&#45;&gt;6</title>
<path fill="none" stroke="black" d="M527.7,-23.65C548.24,-28.43 576.84,-37.55 597,-54 604.9,-60.45 611.36,-69.48 616.29,-78.09"/>
<polygon fill="black" stroke="black" points="613.29,-79.91 621.05,-87.13 619.49,-76.65 613.29,-79.91"/>
<text text-anchor="middle" x="638.5" y="-57.8" font-family="Times,serif" font-size="14.00">433/433</text>
</g>
<!-- 4&#45;&gt;9 -->
<g id="edge10" class="edge">
<title>4&#45;&gt;9</title>
<path fill="none" stroke="black" d="M289.67,-556.98C284.92,-567.39 281.41,-580.87 288,-591 297.62,-605.79 315.07,-614.37 331.13,-619.34"/>
<polygon fill="black" stroke="black" points="330.3,-622.74 340.87,-621.98 332.13,-615.98 330.3,-622.74"/>
<text text-anchor="middle" x="322" y="-579.8" font-family="Times,serif" font-size="14.00">1532/766</text>
</g>
<!-- 4&#45;&gt;5 -->
<g id="edge11" class="edge">
<title>4&#45;&gt;5</title>
<path fill="none" stroke="black" d="M324.87,-534.7C342.57,-530.26 364.79,-521.41 376,-504 390.96,-480.77 441.52,-487.22 367,-402 352.98,-385.96 297.08,-376.08 258.93,-371.07"/>
<polygon fill="black" stroke="black" points="259.05,-367.56 248.69,-369.78 258.18,-374.5 259.05,-367.56"/>
<text text-anchor="middle" x="431" y="-449.3" font-family="Times,serif" font-size="14.00">0/1106</text>
</g>
<!-- 2 -->
<g id="node10" class="node">
<title>2</title>
<ellipse fill="none" stroke="black" cx="289" cy="-453" rx="27" ry="18"/>
<text text-anchor="middle" x="289" y="-449.3" font-family="Times,serif" font-size="14.00">2</text>
</g>
<!-- 4&#45;&gt;2 -->
<g id="edge12" class="edge">
<title>4&#45;&gt;2</title>
<path fill="none" stroke="black" d="M272.29,-535.98C252.26,-532.17 226.14,-523.53 213,-504 209.28,-498.47 209.4,-494.61 213,-489 218.09,-481.05 237.59,-472.16 255.57,-465.32"/>
<polygon fill="black" stroke="black" points="257.11,-468.48 265.29,-461.76 254.7,-461.91 257.11,-468.48"/>
<text text-anchor="middle" x="247" y="-492.8" font-family="Times,serif" font-size="14.00">766/1364</text>
</g>
<!-- 7&#45;&gt;1 -->
<g id="edge15" class="edge">
<title>7&#45;&gt;1</title>
<path fill="none" stroke="black" d="M563.13,-204.84C583.85,-219.31 614,-245.88 614,-278 614,-628 614,-628 614,-628 614,-674.01 556.61,-696.3 517.51,-706.15"/>
<polygon fill="black" stroke="black" points="516.7,-702.74 507.76,-708.44 518.3,-709.56 516.7,-702.74"/>
<text text-anchor="middle" x="648" y="-449.3" font-family="Times,serif" font-size="14.00">1622/811</text>
</g>
<!-- 7&#45;&gt;6 -->
<g id="edge13" class="edge">
<title>7&#45;&gt;6</title>
<path fill="none" stroke="black" d="M539.03,-173.87C537.09,-163.52 536.62,-150.52 543,-141 553.84,-124.82 573.66,-116.11 591.44,-111.43"/>
<polygon fill="black" stroke="black" points="592.62,-114.75 601.59,-109.11 591.06,-107.92 592.62,-114.75"/>
<text text-anchor="middle" x="577" y="-144.8" font-family="Times,serif" font-size="14.00">1169/837</text>
</g>
<!-- 0 -->
<g id="node7" class="node">
<title>0</title>
<ellipse fill="none" stroke="black" cx="264" cy="-279" rx="27" ry="18"/>
<text text-anchor="middle" x="264" y="-275.3" font-family="Times,serif" font-size="14.00">0</text>
</g>
<!-- 7&#45;&gt;0 -->
<g id="edge14" class="edge">
<title>7&#45;&gt;0</title>
<path fill="none" stroke="black" d="M517.02,-193.94C460.36,-196.37 331.2,-204.4 295,-228 286.11,-233.8 279.33,-243.12 274.41,-252.16"/>
<polygon fill="black" stroke="black" points="271.18,-250.79 269.95,-261.32 277.48,-253.86 271.18,-250.79"/>
<text text-anchor="middle" x="333.5" y="-231.8" font-family="Times,serif" font-size="14.00">1143/1435</text>
</g>
<!-- 6&#45;&gt;1 -->
<g id="edge18" class="edge">
<title>6&#45;&gt;1</title>
<path fill="none" stroke="black" d="M655.03,-107.23C703.69,-111.06 801,-126.75 801,-191 801,-628 801,-628 801,-628 801,-685.78 603.12,-705.27 519.06,-710.95"/>
<polygon fill="black" stroke="black" points="518.68,-707.46 508.92,-711.6 519.13,-714.45 518.68,-707.46"/>
<text text-anchor="middle" x="830.5" y="-405.8" font-family="Times,serif" font-size="14.00">101/954</text>
</g>
<!-- 6&#45;&gt;3 -->
<g id="edge17" class="edge">
<title>6&#45;&gt;3</title>
<path fill="none" stroke="black" d="M602.22,-99.11C581.96,-94.23 553.92,-85.08 534,-69 525.79,-62.37 519.02,-53.04 513.86,-44.24"/>
<polygon fill="black" stroke="black" points="516.91,-42.51 509.07,-35.38 510.75,-45.84 516.91,-42.51"/>
<text text-anchor="middle" x="563.5" y="-57.8" font-family="Times,serif" font-size="14.00">866/433</text>
</g>
<!-- 6&#45;&gt;7 -->
<g id="edge16" class="edge">
<title>6&#45;&gt;7</title>
<path fill="none" stroke="black" d="M625.44,-123.36C623.15,-133.8 618.88,-146.81 611,-156 602.11,-166.38 589.36,-174.11 577.36,-179.62"/>
<polygon fill="black" stroke="black" points="575.85,-176.46 568,-183.58 578.57,-182.91 575.85,-176.46"/>
<text text-anchor="middle" x="648.5" y="-144.8" font-family="Times,serif" font-size="14.00">332/837</text>
</g>
<!-- 0&#45;&gt;7 -->
<g id="edge19" class="edge">
<title>0&#45;&gt;7</title>
<path fill="none" stroke="black" d="M288.36,-270.61C338.44,-255.4 453.05,-220.61 510.24,-203.25"/>
<polygon fill="black" stroke="black" points="511.35,-206.57 519.9,-200.32 509.31,-199.87 511.35,-206.57"/>
<text text-anchor="middle" x="458.5" y="-231.8" font-family="Times,serif" font-size="14.00">2578/1435</text>
</g>
<!-- 8 -->
<g id="node8" class="node">
<title>8</title>
<ellipse fill="none" stroke="black" cx="209" cy="-192" rx="27" ry="18"/>
<text text-anchor="middle" x="209" y="-188.3" font-family="Times,serif" font-size="14.00">8</text>
</g>
<!-- 0&#45;&gt;8 -->
<g id="edge20" class="edge">
<title>0&#45;&gt;8</title>
<path fill="none" stroke="black" d="M237.17,-276.45C214.32,-273.54 182.74,-265.42 167,-243 158.95,-231.54 168.45,-219.5 180.43,-210.11"/>
<polygon fill="black" stroke="black" points="182.81,-212.71 188.93,-204.07 178.75,-207 182.81,-212.71"/>
<text text-anchor="middle" x="187.5" y="-231.8" font-family="Times,serif" font-size="14.00">0/464</text>
</g>
<!-- 0&#45;&gt;5 -->
<g id="edge21" class="edge">
<title>0&#45;&gt;5</title>
<path fill="none" stroke="black" d="M249.14,-294.19C243.66,-300.15 237.86,-307.44 234,-315 230.43,-322 227.89,-330.09 226.11,-337.7"/>
<polygon fill="black" stroke="black" points="222.65,-337.14 224.1,-347.63 229.51,-338.52 222.65,-337.14"/>
<text text-anchor="middle" x="263.5" y="-318.8" font-family="Times,serif" font-size="14.00">686/343</text>
</g>
<!-- 8&#45;&gt;0 -->
<g id="edge22" class="edge">
<title>8&#45;&gt;0</title>
<path fill="none" stroke="black" d="M214.79,-209.95C218.62,-219.99 224.19,-232.72 231,-243 234.11,-247.7 237.88,-252.35 241.74,-256.66"/>
<polygon fill="black" stroke="black" points="239.24,-259.12 248.66,-263.97 244.33,-254.3 239.24,-259.12"/>
<text text-anchor="middle" x="251.5" y="-231.8" font-family="Times,serif" font-size="14.00">0/464</text>
</g>
<!-- 5&#45;&gt;1 -->
<g id="edge25" class="edge">
<title>5&#45;&gt;1</title>
<path fill="none" stroke="black" d="M196.1,-371.26C137.54,-381.64 0,-410.42 0,-452 0,-628 0,-628 0,-628 0,-684.96 62.79,-664 118,-678 234.53,-707.55 377.84,-712.53 444.54,-713.13"/>
<polygon fill="black" stroke="black" points="444.55,-716.63 454.58,-713.19 444.6,-709.63 444.55,-716.63"/>
<text text-anchor="middle" x="29.5" y="-536.3" font-family="Times,serif" font-size="14.00">423/879</text>
</g>
<!-- 5&#45;&gt;4 -->
<g id="edge23" class="edge">
<title>5&#45;&gt;4</title>
<path fill="none" stroke="black" d="M213.52,-383.36C200.36,-411.29 179.28,-468.57 207,-504 220.36,-521.08 243.08,-529.82 262.59,-534.3"/>
<polygon fill="black" stroke="black" points="261.95,-537.74 272.44,-536.28 263.33,-530.88 261.95,-537.74"/>
<text text-anchor="middle" x="221" y="-449.3" font-family="Times,serif" font-size="14.00">0/1106</text>
</g>
<!-- 5&#45;&gt;0 -->
<g id="edge26" class="edge">
<title>5&#45;&gt;0</title>
<path fill="none" stroke="black" d="M247.32,-359.71C263.42,-354.89 283.06,-345.99 293,-330 298.76,-320.74 294.4,-310.32 287.47,-301.41"/>
<polygon fill="black" stroke="black" points="289.88,-298.85 280.61,-293.72 284.66,-303.51 289.88,-298.85"/>
<text text-anchor="middle" x="325.5" y="-318.8" font-family="Times,serif" font-size="14.00">343/343</text>
</g>
<!-- 5&#45;&gt;2 -->
<g id="edge24" class="edge">
<title>5&#45;&gt;2</title>
<path fill="none" stroke="black" d="M213.47,-383.46C209.39,-393.81 206.63,-407.05 213,-417 218.09,-424.95 237.59,-433.84 255.57,-440.68"/>
<polygon fill="black" stroke="black" points="254.7,-444.09 265.29,-444.24 257.11,-437.52 254.7,-444.09"/>
<text text-anchor="middle" x="251.5" y="-405.8" font-family="Times,serif" font-size="14.00">1820/1054</text>
</g>
<!-- 2&#45;&gt;4 -->
<g id="edge27" class="edge">
<title>2&#45;&gt;4</title>
<path fill="none" stroke="black" d="M291.02,-471.18C292.39,-482.81 294.23,-498.42 295.79,-511.73"/>
<polygon fill="black" stroke="black" points="292.33,-512.28 296.98,-521.8 299.28,-511.46 292.33,-512.28"/>
<text text-anchor="middle" x="333.5" y="-492.8" font-family="Times,serif" font-size="14.00">2130/1364</text>
</g>
<!-- 2&#45;&gt;5 -->
<g id="edge28" class="edge">
<title>2&#45;&gt;5</title>
<path fill="none" stroke="black" d="M293.68,-435.06C295.52,-424.77 295.97,-411.78 290,-402 282.62,-389.9 269.56,-381.8 256.85,-376.47"/>
<polygon fill="black" stroke="black" points="257.89,-373.13 247.3,-372.92 255.45,-379.69 257.89,-373.13"/>
<text text-anchor="middle" x="329" y="-405.8" font-family="Times,serif" font-size="14.00">766/1054</text>
</g>
</g>
</svg>
