<?xml version="1.0" encoding="UTF-8" standalone="no"?>
<!DOCTYPE svg PUBLIC "-//W3C//DTD SVG 1.1//EN"
 "http://www.w3.org/Graphics/SVG/1.1/DTD/svg11.dtd">
<!-- Generated by graphviz version 2.42.4 (0)
 -->
<!-- Title: G Pages: 1 -->
<svg width="248pt" height="218pt"
 viewBox="0.00 0.00 248.24 218.00" xmlns="http://www.w3.org/2000/svg" xmlns:xlink="http://www.w3.org/1999/xlink">
<g id="graph0" class="graph" transform="scale(1 1) rotate(0) translate(4 214)">
<title>G</title>
<polygon fill="white" stroke="transparent" points="-4,4 -4,-214 244.24,-214 244.24,4 -4,4"/>
<!-- 2 -->
<g id="node1" class="node">
<title>2</title>
<ellipse fill="none" stroke="black" cx="103.24" cy="-192" rx="27" ry="18"/>
<text text-anchor="middle" x="103.24" y="-188.3" font-family="Times,serif" font-size="14.00">2</text>
</g>
<!-- 1 -->
<g id="node2" class="node">
<title>1</title>
<ellipse fill="none" stroke="black" cx="34.24" cy="-105" rx="27" ry="18"/>
<text text-anchor="middle" x="34.24" y="-101.3" font-family="Times,serif" font-size="14.00">1</text>
</g>
<!-- 2&#45;&gt;1 -->
<g id="edge2" class="edge">
<title>2&#45;&gt;1</title>
<path fill="none" stroke="black" d="M76.07,-189.76C52.49,-187.08 19.63,-179.1 3.24,-156 -3.5,-146.5 1.92,-135.54 10,-126.3"/>
<polygon fill="black" stroke="black" points="12.66,-128.59 17.21,-119.02 7.68,-123.67 12.66,-128.59"/>
<text text-anchor="middle" x="23.74" y="-144.8" font-family="Times,serif" font-size="14.00">0/100</text>
</g>
<!-- 3 -->
<g id="node3" class="node">
<title>3</title>
<ellipse fill="none" stroke="black" cx="112.24" cy="-18" rx="27" ry="18"/>
<text text-anchor="middle" x="112.24" y="-14.3" font-family="Times,serif" font-size="14.00">3</text>
</g>
<!-- 2&#45;&gt;3 -->
<g id="edge1" class="edge">
<title>2&#45;&gt;3</title>
<path fill="none" stroke="black" d="M115.89,-175.95C120.03,-170.1 124.11,-163.11 126.24,-156 137.36,-118.83 128.76,-73.74 120.97,-45.7"/>
<polygon fill="black" stroke="black" points="124.24,-44.45 118.06,-35.84 117.53,-46.42 124.24,-44.45"/>
<text text-anchor="middle" x="160.74" y="-101.3" font-family="Times,serif" font-size="14.00">100/100</text>
</g>
<!-- 1&#45;&gt;2 -->
<g id="edge4" class="edge">
<title>1&#45;&gt;2</title>
<path fill="none" stroke="black" d="M43.52,-121.93C49.73,-132.07 58.35,-145.26 67.24,-156 71.15,-160.73 75.64,-165.51 80.09,-169.95"/>
<polygon fill="black" stroke="black" points="77.81,-172.61 87.43,-177.04 82.67,-167.58 77.81,-172.61"/>
<text text-anchor="middle" x="96.74" y="-144.8" font-family="Times,serif" font-size="14.00">100/100</text>
</g>
<!-- 1&#45;&gt;3 -->
<g id="edge3" class="edge">
<title>1&#45;&gt;3</title>
<path fill="none" stroke="black" d="M17.12,-90.91C5.77,-80.62 -5.55,-66.05 3.24,-54 19.53,-31.66 50.31,-23.26 75.01,-20.25"/>
<polygon fill="black" stroke="black" points="75.55,-23.72 85.17,-19.27 74.88,-16.75 75.55,-23.72"/>
<text text-anchor="middle" x="32.74" y="-57.8" font-family="Times,serif" font-size="14.00">100/100</text>
</g>
<!-- 3&#45;&gt;2 -->
<g id="edge5" class="edge">
<title>3&#45;&gt;2</title>
<path fill="none" stroke="black" d="M133.25,-29.43C153.13,-40.6 181.73,-60.39 194.24,-87 201.04,-101.48 201.41,-108.7 194.24,-123 181.85,-147.73 155.72,-165.77 134.63,-177.03"/>
<polygon fill="black" stroke="black" points="132.99,-173.94 125.65,-181.59 136.16,-180.18 132.99,-173.94"/>
<text text-anchor="middle" x="219.74" y="-101.3" font-family="Times,serif" font-size="14.00">0/100</text>
</g>
<!-- 3&#45;&gt;1 -->
<g id="edge6" class="edge">
<title>3&#45;&gt;1</title>
<path fill="none" stroke="black" d="M98.81,-33.64C86.67,-46.87 68.61,-66.54 54.68,-81.72"/>
<polygon fill="black" stroke="black" points="52.01,-79.46 47.82,-89.19 57.16,-84.19 52.01,-79.46"/>
<text text-anchor="middle" x="97.74" y="-57.8" font-family="Times,serif" font-size="14.00">0/100</text>
</g>
</g>
</svg>
