<?xml version="1.0" encoding="UTF-8" standalone="no"?>
<!DOCTYPE svg PUBLIC "-//W3C//DTD SVG 1.1//EN"
 "http://www.w3.org/Graphics/SVG/1.1/DTD/svg11.dtd">
<!-- Generated by graphviz version 2.42.4 (0)
 -->
<!-- Title: G Pages: 1 -->
<svg width="122pt" height="305pt"
 viewBox="0.00 0.00 122.00 305.00" xmlns="http://www.w3.org/2000/svg" xmlns:xlink="http://www.w3.org/1999/xlink">
<g id="graph0" class="graph" transform="scale(1 1) rotate(0) translate(4 301)">
<title>G</title>
<polygon fill="white" stroke="transparent" points="-4,4 -4,-301 118,-301 118,4 -4,4"/>
<!-- 1 -->
<g id="node1" class="node">
<title>1</title>
<ellipse fill="none" stroke="black" cx="27" cy="-192" rx="27" ry="18"/>
<text text-anchor="middle" x="27" y="-188.3" font-family="Times,serif" font-size="14.00">1</text>
</g>
<!-- 2 -->
<g id="node2" class="node">
<title>2</title>
<ellipse fill="none" stroke="black" cx="87" cy="-105" rx="27" ry="18"/>
<text text-anchor="middle" x="87" y="-101.3" font-family="Times,serif" font-size="14.00">2</text>
</g>
<!-- 1&#45;&gt;2 -->
<g id="edge2" class="edge">
<title>1&#45;&gt;2</title>
<path fill="none" stroke="black" d="M34.07,-174.54C38.76,-164.44 45.44,-151.47 53,-141 56.35,-136.36 60.29,-131.74 64.29,-127.44"/>
<polygon fill="black" stroke="black" points="66.94,-129.73 71.42,-120.13 61.93,-124.85 66.94,-129.73"/>
<text text-anchor="middle" x="64.5" y="-144.8" font-family="Times,serif" font-size="14.00">1/3</text>
</g>
<!-- 3 -->
<g id="node4" class="node">
<title>3</title>
<ellipse fill="none" stroke="black" cx="35" cy="-18" rx="27" ry="18"/>
<text text-anchor="middle" x="35" y="-14.3" font-family="Times,serif" font-size="14.00">3</text>
</g>
<!-- 1&#45;&gt;3 -->
<g id="edge1" class="edge">
<title>1&#45;&gt;3</title>
<path fill="none" stroke="black" d="M26.68,-173.69C26.4,-153.03 26.29,-117.47 28,-87 28.76,-73.53 30.22,-58.61 31.62,-46.19"/>
<polygon fill="black" stroke="black" points="35.12,-46.35 32.81,-36.01 28.17,-45.54 35.12,-46.35"/>
<text text-anchor="middle" x="39.5" y="-101.3" font-family="Times,serif" font-size="14.00">1/1</text>
</g>
<!-- 2&#45;&gt;3 -->
<g id="edge3" class="edge">
<title>2&#45;&gt;3</title>
<path fill="none" stroke="black" d="M77.22,-88.01C69.59,-75.55 58.87,-58.01 50.13,-43.74"/>
<polygon fill="black" stroke="black" points="52.94,-41.62 44.74,-34.92 46.97,-45.27 52.94,-41.62"/>
<text text-anchor="middle" x="75.5" y="-57.8" font-family="Times,serif" font-size="14.00">5/5</text>
</g>
<!-- 0 -->
<g id="node3" class="node">
<title>0</title>
<ellipse fill="none" stroke="black" cx="59" cy="-279" rx="27" ry="18"/>
<text text-anchor="middle" x="59" y="-275.3" font-family="Times,serif" font-size="14.00">0</text>
</g>
<!-- 0&#45;&gt;1 -->
<g id="edge5" class="edge">
<title>0&#45;&gt;1</title>
<path fill="none" stroke="black" d="M52.68,-261.21C48.16,-249.22 42,-232.85 36.85,-219.16"/>
<polygon fill="black" stroke="black" points="40.11,-217.88 33.31,-209.76 33.56,-220.35 40.11,-217.88"/>
<text text-anchor="middle" x="55.5" y="-231.8" font-family="Times,serif" font-size="14.00">2/2</text>
</g>
<!-- 0&#45;&gt;2 -->
<g id="edge4" class="edge">
<title>0&#45;&gt;2</title>
<path fill="none" stroke="black" d="M65.48,-261.48C67.52,-255.71 69.61,-249.14 71,-243 79.52,-205.48 83.65,-161.09 85.54,-133.23"/>
<polygon fill="black" stroke="black" points="89.05,-133.27 86.18,-123.07 82.06,-132.83 89.05,-133.27"/>
<text text-anchor="middle" x="92.5" y="-188.3" font-family="Times,serif" font-size="14.00">4/4</text>
</g>
</g>
</svg>
